<?xml version="1.0" encoding="UTF-8" standalone="no"?>
<svg
   xmlns:dc="http://purl.org/dc/elements/1.1/"
   xmlns:cc="http://creativecommons.org/ns#"
   xmlns:rdf="http://www.w3.org/1999/02/22-rdf-syntax-ns#"
   xmlns:svg="http://www.w3.org/2000/svg"
   xmlns="http://www.w3.org/2000/svg"
   xmlns:xlink="http://www.w3.org/1999/xlink"
   xmlns:sodipodi="http://sodipodi.sourceforge.net/DTD/sodipodi-0.dtd"
   xmlns:inkscape="http://www.inkscape.org/namespaces/inkscape"
   sodipodi:docname="excel_sheet.svg"
   inkscape:version="1.0 (4035a4f, 2020-05-01)"
   id="svg8"
   version="1.1"
   viewBox="0 0 109 117"
   height="117mm"
   width="109mm">
  <defs
     id="defs2">
    <linearGradient
       id="linearGradient903"
       inkscape:collect="always">
      <stop
         id="stop899"
         offset="0"
         style="stop-color:#c6c6c6;stop-opacity:1;" />
      <stop
         id="stop901"
         offset="1"
         style="stop-color:#c6c6c6;stop-opacity:0;" />
    </linearGradient>
    <linearGradient
       gradientUnits="userSpaceOnUse"
       y2="124.23785"
       x2="55.432819"
       y1="115.69518"
       x1="55.212059"
       id="linearGradient905"
       xlink:href="#linearGradient903"
       inkscape:collect="always" />
  </defs>
  <sodipodi:namedview
     inkscape:window-maximized="0"
     inkscape:window-y="100"
     inkscape:window-x="1945"
     inkscape:window-height="940"
     inkscape:window-width="1252"
     lock-margins="false"
     inkscape:snap-global="false"
     showgrid="false"
     inkscape:document-rotation="0"
     inkscape:current-layer="g849"
     inkscape:document-units="mm"
     inkscape:cy="205.11342"
     inkscape:cx="163.34107"
     inkscape:zoom="1.0400318"
     inkscape:pageshadow="2"
     inkscape:pageopacity="0.0"
     borderopacity="1.0"
     bordercolor="#666666"
     pagecolor="#ffffff"
     id="base" />
  <metadata
     id="metadata5">
    <rdf:RDF>
      <cc:Work
         rdf:about="">
        <dc:format>image/svg+xml</dc:format>
        <dc:type
           rdf:resource="http://purl.org/dc/dcmitype/StillImage" />
        <dc:title></dc:title>
      </cc:Work>
    </rdf:RDF>
  </metadata>
  <g
     id="layer1"
     inkscape:groupmode="layer"
     inkscape:label="Layer 1">
    <g
       transform="translate(-16.479763,-21.015478)"
       id="g849">
      <path
         id="path865"
         d="M 16.687653,79.374996 V 21.166666 H 71.059528 125.4314 v 58.20833 58.208334 H 71.059528 16.687653 Z M 120.93349,91.877582 V 51.198918 L 108.30067,38.564042 95.667844,25.929166 H 67.687125 39.706403 V 42.063707 58.19825 l -0.595312,0.137536 c -0.327422,0.07565 -4.643438,0.734456 -9.591146,1.464021 -4.947709,0.729567 -9.263724,1.386589 -9.591146,1.460045 l -0.595313,0.133559 1.29e-4,25.461104 1.29e-4,25.461105 9.591017,1.41526 c 5.275059,0.7784 9.858908,1.47591 10.18633,1.55004 l 0.595312,0.13477 v 8.57028 8.57027 H 80.319945 120.93349 Z M 42.352236,124.35416 v -5.55625 l 0.992188,0.002 c 0.545703,0.001 1.706562,0.1167 2.579687,0.2569 0.873125,0.1402 3.135313,0.44449 5.027084,0.6762 1.891771,0.23171 4.74927,0.59033 6.35,0.79693 1.600729,0.2066 4.874948,0.61243 7.276041,0.90185 2.401094,0.28942 4.621596,0.59987 4.93445,0.68989 0.545259,0.15689 0.57671,0.0585 0.759069,-2.3738 l 0.190243,-2.53759 h 8.699786 8.699786 v -2.51354 -2.51354 h -8.73125 -8.73125 v -2.51354 -2.51355 h 8.73125 8.73125 v -2.51354 -2.51354 H 79.12932 70.39807 V 99.6155 97.101958 h 8.73125 8.73125 V 94.456245 91.810412 H 79.12932 70.39807 V 89.29687 86.783329 h 8.73125 8.73125 v -2.513542 -2.513541 h -8.73125 -8.73125 v -2.513542 -2.513541 h 8.73125 8.73125 V 74.215621 71.70208 h -8.73125 -8.73125 v -2.645833 -2.645834 h 8.73125 8.73125 V 63.896872 61.38333 h -8.73125 -8.73125 v -3.836458 c 0,-2.110052 -0.0597,-3.836458 -0.132676,-3.836458 -0.298876,0 -26.768893,3.977836 -27.317845,4.105246 l -0.595313,0.138168 V 43.264414 28.574999 h 25.265142 25.265145 l 0.06871,12.633853 0.06871,12.633854 12.633857,0.06871 12.63385,0.06871 V 91.94527 129.91041 H 80.319945 42.352236 Z m 68.527084,-9.65729 v -2.51354 h -8.86354 -8.863544 v 2.51354 2.51354 h 8.863544 8.86354 z m 0,-10.05417 v -2.51354 h -8.86354 -8.863544 v 2.51354 2.51354 h 8.863544 8.86354 z m 0,-10.186455 v -2.645833 h -8.86354 -8.863544 v 2.645833 2.645833 h 8.863544 8.86354 z m 0,-10.186458 v -2.513541 h -8.86354 -8.863544 v 2.513541 2.513542 h 8.863544 8.86354 z m 0,-10.054166 V 71.70208 h -8.86354 -8.863544 v 2.513541 2.513542 h 8.863544 8.86354 z m 0,-10.318749 V 61.38333 h -8.86354 -8.863544 v 2.513542 2.513541 h 8.863544 8.86354 z M 30.31998,101.14369 c 0.260056,-0.40387 2.537918,-3.737164 5.061917,-7.407305 2.523999,-3.670143 4.589089,-6.78962 4.589089,-6.932175 0,-0.142552 -2.002297,-3.450021 -4.449549,-7.349929 -2.447253,-3.899908 -4.537873,-7.239571 -4.645824,-7.421472 -0.153793,-0.259149 0.748175,-0.330729 4.16742,-0.330729 h 4.363692 l 2.391643,4.668774 c 1.315403,2.567826 2.591742,5.192728 2.836307,5.833114 0.480391,1.257882 0.623541,1.235168 1.154274,-0.183139 0.19059,-0.509323 1.549127,-3.03726 3.01897,-5.617641 l 2.672442,-4.691596 4.03316,-0.0048 4.033163,-0.0048 -1.147566,1.785937 c -0.631161,0.982266 -2.551862,3.929062 -4.268222,6.548437 -1.716362,2.619375 -3.396223,5.197734 -3.733027,5.729684 l -0.61237,0.967184 5.003932,7.565628 5.003935,7.565628 -4.288795,-0.002 -4.288793,-0.002 -2.976563,-5.234391 c -1.637109,-2.87891 -2.978385,-5.408207 -2.980613,-5.620657 -0.0021,-0.21245 -0.105994,-0.547145 -0.230592,-0.743765 -0.161441,-0.254762 -0.340757,-0.02666 -0.623993,0.79375 -0.218599,0.633426 -1.646651,3.29461 -3.17345,5.913985 l -2.775999,4.762508 -4.303708,0.0729 -4.303707,0.0729 z M 95.654343,50.997901 c -0.06991,-0.182198 -0.09594,-5.004828 -0.05784,-10.71696 l 0.06928,-10.385693 10.714407,10.716958 10.7144,10.716958 h -10.65656 c -8.290365,0 -10.684789,-0.07355 -10.783682,-0.331263 z"
         style="fill:#fbfbfb;stroke-width:0.264583" />
      <path
         sodipodi:nodetypes="ccccccccccccccccssccccscccccccccccccccccccccccccccccccccccccccccccccccccccccccccccccccccccccccssssccccccccccccccccccccccccccccccccccccscsssscsss"
         id="path863"
         d="m 118.35284,89.894749 -0.0652,-35.914621 -12.63385,-0.06871 -12.633855,-0.06871 -0.06871,-12.633854 -0.06871,-12.633853 H 67.619601 42.356679 l -0.07176,14.75052 -0.07176,14.75052 0.0034,-14.816666 0.0034,-14.816666 25.466146,-0.06747 25.466145,-0.06747 V 41.009088 53.71041 h 12.57601 c 9.81729,0 12.60362,0.07255 12.70187,0.330729 0.0692,0.181901 0.0948,16.404166 0.0569,36.049477 l -0.069,35.718754 z M 70.191991,86.717183 c 0.03218,-18.226483 0.09489,-31.382889 0.139367,-29.236457 l 0.08086,3.902604 h 8.724175 8.724178 v 2.513542 2.513541 h -8.73125 -8.73125 v 2.645834 2.645833 h 8.73125 8.73125 v 2.513541 2.513542 h -8.73125 -8.73125 v 2.513541 2.513542 h 8.73125 8.73125 v 2.513541 2.513542 h -8.73125 -8.73125 v 2.513541 2.513542 h 8.73125 8.73125 v 2.645833 2.645833 h -8.73125 -8.73125 v 2.513542 2.51354 h 8.73125 8.73125 v 2.51354 2.51354 h -8.73125 -8.73125 v 2.51355 2.51354 h 8.73125 8.73125 v 2.51354 2.51354 h -8.699786 -8.699786 c -22.45264,2.08338 -0.774926,-16.01243 -0.269008,-30.493227 z m 22.960245,27.979687 v -2.51354 h 8.863544 8.86354 v 2.51354 2.51354 h -8.86354 -8.863544 z m 0,-10.05417 v -2.51354 h 8.863544 8.86354 v 2.51354 2.51354 h -8.86354 -8.863544 z M 31.84804,101.93197 c 1.280452,-0.0486 3.304515,-0.0484 4.497917,5.3e-4 1.193401,0.0489 0.145759,0.0887 -2.328096,0.0884 -2.473854,-2.7e-4 -3.450273,-0.0403 -2.169821,-0.0889 z m 21.55055,2.7e-4 c 1.200547,-0.049 3.165079,-0.049 4.365626,0 1.200546,0.049 0.218281,0.0891 -2.182813,0.0891 -2.401094,0 -3.383359,-0.0401 -2.182813,-0.0891 z m 39.753646,-7.475995 v -2.645833 h 8.863544 8.86354 v 2.645833 2.645833 h -8.86354 -8.863544 z m 0,-10.186458 v -2.513541 h 8.863544 8.86354 v 2.513541 2.513542 h -8.86354 -8.863544 z m 0,-10.054166 V 71.70208 h 8.863544 8.86354 v 2.513541 2.513542 h -8.86354 -8.863544 z m 0,-10.318749 V 61.38333 h 8.863544 8.86354 v 2.513542 2.513541 h -8.86354 -8.863544 z M 106.2479,40.415102 95.401195,29.501041 106.31526,40.347747 c 6.00273,5.965688 10.91406,10.877015 10.91406,10.914062 0,0.186275 -0.89996,-0.70264 -10.98142,-10.846707 z M 108.10016,38.563019 95.401195,25.796874 108.16734,38.49584 c 7.02138,6.984431 12.76615,12.729198 12.76615,12.766144 0,0.186023 -1.02965,-0.832848 -12.83333,-12.698965 z"
         style="fill:#c6c6c6;stroke-width:0.264583" />
      <path
         sodipodi:nodetypes="cccccccccccsssssssssssssssssssssssscscscsssssssssscccccccccccsssscccssscccsss"
         id="path861"
         d="m 80.243112,129.97656 38.023168,-0.0679 0.0891,-2.18192 0.0891,-2.18191 0.0538,2.3151 0.0539,2.3151 -38.166149,-0.0652 -38.166146,-0.0652 z M 42.28609,115.62275 c -17.204218,-63.071515 -8.602109,-31.535757 0,0 z M 37.540127,114.913 c 0.190996,-0.0764 0.419199,-0.067 0.507118,0.0209 0.08792,0.0879 -0.06835,0.15045 -0.347266,0.13896 -0.308224,-0.0127 -0.370919,-0.0754 -0.159852,-0.15985 z m -5.291667,-0.79375 c 0.190996,-0.0764 0.4192,-0.067 0.507118,0.0209 0.08792,0.0879 -0.06835,0.15045 -0.347265,0.13896 -0.308225,-0.0127 -0.37092,-0.0754 -0.159853,-0.15985 z m -5.291666,-0.79375 c 0.190996,-0.0764 0.419199,-0.067 0.507118,0.0209 0.08792,0.0879 -0.06835,0.15045 -0.347266,0.13896 -0.308224,-0.0127 -0.370919,-0.0754 -0.159852,-0.15985 z m -5.291667,-0.79375 c 0.190996,-0.0764 0.419199,-0.067 0.507118,0.0209 0.08792,0.0879 -0.06835,0.15045 -0.347266,0.13896 -0.308224,-0.0127 -0.370919,-0.0754 -0.159852,-0.15985 z M 45.147371,83.001605 c 0.09936,-0.260937 0.247304,-0.407781 0.328766,-0.326318 0.08146,0.08146 1.7e-4,0.294954 -0.180652,0.474432 -0.261308,0.25936 -0.291698,0.22897 -0.148114,-0.148114 z m 4.613199,-8.653692 c 0.15576,-0.291042 0.342733,-0.529167 0.415493,-0.529167 0.07276,0 0.0048,0.238125 -0.15091,0.529167 -0.15576,0.291042 -0.342733,0.529167 -0.415494,0.529167 -0.07276,0 -0.0048,-0.238125 0.150911,-0.529167 z M 30.445986,71.635934 c 0,-0.109141 2.017036,-0.198438 4.482302,-0.198438 2.465266,0 4.53749,0.0893 4.604943,0.198438 0.06745,0.109141 -1.949583,0.198437 -4.482302,0.198437 -2.532718,0 -4.604943,-0.0893 -4.604943,-0.198437 z m 23.084896,-0.130522 c 1.127787,-0.0496 2.973255,-0.0496 4.101042,0 1.127786,0.0496 0.205052,0.09018 -2.050521,0.09018 -2.255573,0 -3.178307,-0.04058 -2.050521,-0.09018 z m 65.994548,-1.342546 -0.96488,-0.988128 -0.0703,-7.666016 -0.0703,-7.666016 -8.21677,-0.06984 -8.21676,-0.06985 -1.16488,-1.186926 -1.164888,-1.186929 h 8.851278 8.85127 L 106.51249,40.479738 95.665778,29.630312 95.533486,37.874937 c -0.114622,7.143519 0.10592,8.184532 -0.217366,7.794677 -0.205217,-0.247472 -1.296642,-0.325335 -1.510053,-0.243441 -1.049252,0.402635 -0.653831,-0.169079 -0.653831,-8.81378 V 28.310416 H 85.7976 78.442964 l -0.98512,-1.008855 c -0.541817,-0.55487 -0.903325,-1.090651 -0.80335,-1.190625 0.09997,-0.09997 4.359339,-0.18177 9.465258,-0.18177 h 9.283488 l 12.76512,12.767157 12.76513,12.767157 v 9.706811 c 0,5.338746 -0.0997,9.768437 -0.22159,9.843758 -0.12187,0.07532 -0.65579,-0.30771 -1.18647,-0.851183 z"
         style="fill:#ababab;stroke-width:0.264583" />
      <path
         sodipodi:nodetypes="ccccccccccscsccccccssscccssccssssscccccccs"
         id="path859"
         d="m 39.706403,124.0953 0.01851,-8.75716 1.167963,0.10714 1.204991,0.0701 0.05178,7.3747 0.07029,7.15253 38.166146,0.067 38.166147,0.067 V 99.695109 69.213436 l 1.00885,0.98512 c 0.55487,0.541816 1.09065,0.903324 1.19062,0.803349 0.1,-0.09997 0.18178,13.708855 0.18178,30.686285 v 30.86805 H 80.319945 39.706403 Z m 0,-82.026552 V 25.929166 h 18.564931 c 10.21071,0 18.483133,0.0818 18.38316,0.18177 -0.09998,0.09997 0.261533,0.635755 0.80335,1.190625 l 0.98512,1.008855 H 60.265309 42.087653 v 14.788358 c 0,16.274379 0.124051,15.109557 -1.609139,15.109557 h -0.772111 z m 53.445833,7.243646 c 0,-3.820555 -0.237453,-4.413647 0.09724,-4.135874 0.211904,0.175867 0.805107,0.295922 0.966172,0.196379 0.161065,-0.09954 0.811511,-0.145106 1.093382,0.109986 0.440828,0.398942 0.224452,1.000892 0.224452,3.241454 v 2.604825 h 2.061578 2.061578 l 1.168512,1.190625 1.16851,1.190625 h -4.420714 -4.420714 z"
         style="fill:#929292;stroke-width:0.264583" />
      <rect
         y="115.48213"
         x="42.161781"
         height="8.2843246"
         width="27.724569"
         id="rect889"
         style="fill:url(#linearGradient905);fill-opacity:1;stroke:none;stroke-width:1.26153;stroke-linecap:round;paint-order:markers fill stroke" />
      <path
         sodipodi:nodetypes="sssssssssssssssssssssssssssssssssssccsccccscc"
         id="path857"
         d="m 19.46055,86.915621 c 1.4e-5,-13.97 0.03211,-19.646198 0.07133,-12.613775 0.03921,7.032424 0.0392,18.462423 -2.6e-5,25.399999 -0.03923,6.937575 -0.07131,1.183775 -0.0713,-12.786224 z m 4.85041,-26.242197 c 0.190996,-0.07643 0.4192,-0.06703 0.507118,0.02088 0.08792,0.08792 -0.06835,0.150452 -0.347265,0.138964 -0.308225,-0.0127 -0.37092,-0.07539 -0.159853,-0.15985 z m 5.291667,-0.79375 c 0.190996,-0.07643 0.419199,-0.06703 0.507118,0.02088 0.08792,0.08792 -0.06835,0.150453 -0.347266,0.138964 -0.308224,-0.0127 -0.370919,-0.07539 -0.159852,-0.15985 z m 5.291667,-0.79375 c 0.190996,-0.07643 0.419199,-0.06703 0.507118,0.02088 0.08792,0.08792 -0.06835,0.150453 -0.347266,0.138964 -0.308224,-0.0127 -0.370919,-0.07539 -0.159852,-0.15985 z m 10.583333,-1.5875 c 0.190995,-0.07643 0.419198,-0.06703 0.507119,0.02088 0.08792,0.08792 -0.06835,0.150453 -0.347266,0.138964 -0.308226,-0.0127 -0.370919,-0.07539 -0.159853,-0.15985 z m 5.291667,-0.79375 c 0.190994,-0.07643 0.419198,-0.06703 0.507119,0.02088 0.08792,0.08792 -0.06835,0.150453 -0.347266,0.138965 -0.308226,-0.0127 -0.370919,-0.07539 -0.159853,-0.159851 z m 5.291666,-0.79375 c 0.190995,-0.07643 0.419198,-0.06703 0.507119,0.02088 0.08792,0.08792 -0.06835,0.150453 -0.347265,0.138965 -0.308227,-0.0127 -0.37092,-0.07539 -0.159854,-0.159851 z m 5.291667,-0.793749 c 0.190995,-0.07643 0.419198,-0.06703 0.507119,0.02087 0.08792,0.08792 -0.06835,0.150453 -0.347266,0.138965 -0.308226,-0.0127 -0.370919,-0.07539 -0.159853,-0.159851 z m 5.291667,-0.79375 c 0.190994,-0.07643 0.419198,-0.06703 0.507119,0.02087 0.08792,0.08792 -0.06835,0.150453 -0.347266,0.138965 -0.308226,-0.0127 -0.370919,-0.07539 -0.159853,-0.159851 z"
         style="fill:#6ca184;stroke-width:0.264583" />
      <path
         sodipodi:nodetypes="sssssssscccsssssssssssssscssssscsccscssssssssssssccsssssssssscsssscsssssssssssscsscssccc"
         transform="matrix(0.26458333,0,0,0.26458333,16.479763,21.015478)"
         id="path887"
         d="m 189.99973,371.55238 c -4.28223,-0.63058 -8.00246,-1.47741 -8.26718,-1.88183 -0.26471,-0.40442 -1.01366,-0.53102 -1.66433,-0.28134 -1.54662,0.5935 -17.73127,-1.801 -18.35651,-2.71581 -0.26471,-0.38732 -1.01366,-0.49992 -1.66433,-0.25024 -1.54662,0.5935 -17.73126,-1.801 -18.35651,-2.71581 -0.26471,-0.38732 -1.01366,-0.49992 -1.66433,-0.25024 -1.54661,0.5935 -17.73126,-1.801 -18.3565,-2.71581 -0.26472,-0.38732 -1.01811,-0.49821 -1.67423,-0.24644 -4.25152,1.24694 -19.2277,-4.26339 -21.213468,-2.28082 -0.408167,0.79211 -1.652112,-0.45385 -2.583941,-0.69742 -7.160697,-0.68218 -14.459493,-2.00319 -14.459493,-2.61705 0,-0.41324 -0.883057,-0.58255 -1.962349,-0.37623 -2.579604,0.49312 -17.549779,-1.67996 -18.167967,-2.63728 -0.264129,-0.40902 -1.185223,-0.55932 -2.046875,-0.33399 -2.094267,0.54766 -17.364652,-1.68849 -17.973962,-2.63206 -0.264129,-0.40902 -1.191849,-0.55759 -2.061599,-0.33014 -1.706734,0.44632 -17.238059,-1.65846 -17.84976,-2.41897 -0.203916,-0.25352 -2.46282,-0.50989 -5.019788,-0.5697 -2.556967,-0.0598 -4.976152,-0.31093 -5.375966,-0.55802 -0.46349,-0.28645 -0.666061,-14.60875 -0.558966,-39.52029 0.14471,-33.66108 0.224126,-36.14485 0.573545,-17.93792 0.223068,11.62321 0.405578,-5.72818 0.405578,-38.55865 0,-32.83046 -0.18251,-50.18186 -0.405578,-38.55865 -0.346815,18.07126 -0.429913,15.41229 -0.573545,-18.35243 -0.09238,-21.71705 -0.08455,-39.49161 0.01741,-39.49903 0.101958,-0.007 4.189546,-0.66363 9.083528,-1.45824 5.415382,-0.87926 8.994893,-1.16421 9.14532,-0.72802 0.359459,1.04232 2.176789,0.87755 2.867412,-0.25998 0.817162,-1.34595 16.516463,-3.66976 17.769083,-2.63018 0.98794,0.81992 2.738269,0.18534 2.143446,-0.77711 -0.437972,-0.70865 13.711505,-2.67985 17.685854,-2.46386 1.592705,0.0866 2.657139,-0.0813 2.365408,-0.37304 -0.702855,-0.70285 13.599178,-3.03512 19.04165,-3.10517 12.964873,-2.27127 3.841728,-0.97599 7.211394,-1.39897 l 3.892939,-0.61301 c 2.14112,-0.33716 5.32162,-0.55013 7.06778,-0.47328 1.74616,0.0769 3.01028,-0.12651 2.80916,-0.45193 -0.50385,-0.81524 15.753,-3.03588 18.41074,-2.51485 1.31817,0.25841 1.97507,0.13934 1.69865,-0.30792 -0.58536,-0.94712 15.43542,-3.29954 18.32219,-2.69035 1.40139,0.29574 1.98314,0.18462 1.67169,-0.31932 -0.59044,-0.95535 10.82028,-2.76812 16.40296,-2.60585 2.15091,0.0625 3.73737,-0.16685 3.52547,-0.50971 -0.50502,-0.81714 11.48158,-2.60207 16.49537,-2.45634 2.15091,0.0625 3.74081,-0.16128 3.53312,-0.49733 -0.32834,-0.53126 10.7086,-2.61874 11.09121,-2.09774 0.29838,0.4063 -0.86681,247.49632 -1.16852,247.79804 -0.9367,0.9367 -4.85596,0.89364 -11.80521,-0.12967 z m -113.337414,-65.8256 6.416852,-0.46675 7.620911,-13.10122 c 4.191503,-7.20568 9.547141,-16.86301 11.901421,-21.46073 2.35428,-4.59771 4.49619,-8.43504 4.75979,-8.52739 0.26361,-0.0923 1.05445,1.33366 1.75742,3.16891 1.1268,2.94172 8.66742,16.80237 18.65323,34.28707 2.91305,5.10063 3.52494,5.74559 5.50209,5.79948 1.22349,0.0334 4.89398,0.31919 8.15663,0.6352 5.02019,0.48624 20.97563,-0.27542 21.7379,-1.0377 0.13362,-0.13362 -6.39535,-10.20166 -14.50884,-22.37341 -8.11348,-12.17176 -16.51484,-24.88851 -18.66969,-28.25944 l -3.91791,-6.12895 4.40408,-6.84752 c 2.42224,-3.76612 10.66871,-16.46059 18.32547,-28.20992 7.65677,-11.74933 13.74834,-21.53547 13.53684,-21.74698 -0.7339,-0.7339 -17.26581,-1.21143 -23.61874,-0.68223 l -6.38702,0.53203 -1.97699,3.63238 c -1.08735,1.99781 -2.47894,3.91329 -3.09245,4.25663 -0.6135,0.34333 -1.59479,2.0155 -2.18064,3.71592 -0.58584,1.70043 -3.35683,7.18259 -6.15776,12.18259 -2.80093,4.99999 -6.00956,10.90244 -7.1303,13.11655 -3.34819,6.61461 -3.70858,6.69562 -6.04252,1.35818 -1.11649,-2.55327 -5.818461,-12.06149 -10.448835,-21.12938 -4.630368,-9.06788 -8.408329,-16.74253 -8.395464,-17.05478 0.01286,-0.31225 -7.651646,-0.6573 -17.032242,-0.76677 -10.228789,-0.11938 -17.055628,0.0785 -17.055628,0.49434 0,0.38136 0.273304,0.80461 0.607342,0.94056 0.625513,0.25456 29.402707,46.19221 33.201052,52.99954 l 2.127318,3.81254 -9.364323,13.98376 c -5.150377,7.69106 -13.734467,20.37881 -19.075754,28.19501 l -9.711431,14.21126 5.74235,0.47249 c 3.158293,0.25987 6.409713,0.58332 7.225377,0.71879 0.815663,0.13547 2.650907,0.13389 4.078318,-0.004 1.427412,-0.13739 5.482878,-0.45984 9.012146,-0.71655 z"
         style="fill:#2d7a50;fill-opacity:1;stroke:none;stroke-width:3.54525;stroke-linecap:round;paint-order:markers fill stroke" />
    </g>
  </g>
</svg>
