<?xml version="1.0" encoding="UTF-8" standalone="no"?>
<svg
   xmlns:dc="http://purl.org/dc/elements/1.1/"
   xmlns:cc="http://creativecommons.org/ns#"
   xmlns:rdf="http://www.w3.org/1999/02/22-rdf-syntax-ns#"
   xmlns:svg="http://www.w3.org/2000/svg"
   xmlns="http://www.w3.org/2000/svg"
   xmlns:sodipodi="http://sodipodi.sourceforge.net/DTD/sodipodi-0.dtd"
   xmlns:inkscape="http://www.inkscape.org/namespaces/inkscape"
   sodipodi:docname="excel_WB.svg"
   inkscape:version="1.0 (4035a4f, 2020-05-01)"
   id="svg8"
   version="1.1"
   viewBox="0 0 121 115"
   height="115mm"
   width="121mm">
  <defs
     id="defs2" />
  <sodipodi:namedview
     inkscape:window-maximized="0"
     inkscape:window-y="61"
     inkscape:window-x="2001"
     inkscape:window-height="940"
     inkscape:window-width="1252"
     showgrid="false"
     inkscape:document-rotation="0"
     inkscape:current-layer="layer1"
     inkscape:document-units="mm"
     inkscape:cy="22.367388"
     inkscape:cx="372.44587"
     inkscape:zoom="0.66619336"
     inkscape:pageshadow="2"
     inkscape:pageopacity="0.0"
     borderopacity="1.0"
     bordercolor="#666666"
     pagecolor="#ffffff"
     id="base" />
  <metadata
     id="metadata5">
    <rdf:RDF>
      <cc:Work
         rdf:about="">
        <dc:format>image/svg+xml</dc:format>
        <dc:type
           rdf:resource="http://purl.org/dc/dcmitype/StillImage" />
        <dc:title></dc:title>
      </cc:Work>
    </rdf:RDF>
  </metadata>
  <g
     id="layer1"
     inkscape:groupmode="layer"
     inkscape:label="Layer 1">
    <path
       id="path24"
       d="m 68.599143,114.35313 v -11.37708 h 35.983327 c 3.76211,0 10.67938,1.33615 13.73373,-1.19909 1.96956,-1.63539 1.87669,-3.883561 1.87669,-6.209241 v -11.64167 -50.8 -12.96458 c 0,-2.3935 0.17727,-4.74594 -1.89812,-6.40572 -3.23665,-2.58877 -10.05285,-1.2672 -13.97688,-1.2672 H 68.599143 V 1.1114688 l -17.462501,3.22704 -32.808334,6.1856702 -12.435417,2.33471 -4.490561,1.14795 -0.271939,4.83171 v 12.96459 50.27083 14.55208 l 0.424233,4.983691 5.132017,1.15464 13.229167,2.49 32.279167,6.08541 16.404168,3.01334 M 115.43039,16.986469 v 81.49166 H 68.599143 v -7.40833 H 85.00331 V 80.751049 H 68.599143 v -3.43958 H 85.00331 V 66.992719 H 68.599143 v -3.96875 H 85.00331 V 52.705219 H 68.599143 v -3.96875 H 85.00331 V 38.417719 H 68.599143 v -3.70417 H 85.00331 V 24.394799 H 68.599143 v -7.40833 h 46.831247 m -26.19375,7.40833 v 10.31875 h 18.78542 V 24.394799 H 89.23664 m -41.804165,12.43542 -7.212012,14.2875 -2.769394,5.70865 2.507721,5.13927 7.738269,15.08125 c -2.206096,-0.0183 -4.415367,-0.35481 -6.614584,-0.50536 -0.743479,-0.0511 -1.821921,0.17727 -2.460889,-0.2958 -0.951707,-0.70459 -1.375569,-2.65166 -1.854201,-3.69676 -1.556014,-3.39884 -4.10845,-7.34907 -4.41616,-11.1125 h -0.529167 c -0.31115,3.56288 -2.745052,7.40145 -4.298156,10.58333 -0.463021,0.9488 -0.863336,2.79612 -1.890448,3.28004 -1.907646,0.89853 -5.771833,-0.2069 -7.834313,-0.36962 l 6.577807,-12.43542 2.733146,-5.55625 -2.366434,-5.29166 -6.150769,-12.7 8.466667,-0.52917 5.291667,14.02292 4.41616,-10.58334 2.271184,-4.22592 8.393906,-0.80116 m 41.804165,1.5875 v 10.31875 h 18.78542 V 38.417719 H 89.23664 m 0,14.2875 v 10.31875 h 18.78542 V 52.705219 H 89.23664 m 0,14.2875 v 10.31875 h 18.78542 V 66.992719 H 89.23664 m 0,13.75833 v 10.31875 h 18.78542 v -10.31875 z"
       style="fill:#1f7143;stroke:none;stroke-width:1" />
  </g>
</svg>
